<mxfile host="app.diagrams.net" agent="Mozilla/5.0 (Macintosh; Intel Mac OS X 10_15_7) AppleWebKit/537.36 (KHTML, like Gecko) Chrome/138.0.0.0 Safari/537.36" version="28.0.7">
  <diagram name="Page-1" id="YcUH9jAk4OQXTjFQi2v2">
    <mxGraphModel dx="1634" dy="790" grid="0" gridSize="10" guides="1" tooltips="1" connect="1" arrows="1" fold="1" page="0" pageScale="1" pageWidth="850" pageHeight="1100" math="0" shadow="0">
      <root>
        <mxCell id="0" />
        <mxCell id="1" parent="0" />
        <mxCell id="dw4zFon4HWWVXQRwo27t-26" style="edgeStyle=orthogonalEdgeStyle;rounded=0;orthogonalLoop=1;jettySize=auto;html=1;exitX=0.5;exitY=1;exitDx=0;exitDy=0;entryX=0.75;entryY=0;entryDx=0;entryDy=0;endArrow=none;endFill=0;strokeWidth=2;" edge="1" parent="1" source="dw4zFon4HWWVXQRwo27t-21" target="dw4zFon4HWWVXQRwo27t-5">
          <mxGeometry relative="1" as="geometry" />
        </mxCell>
        <mxCell id="dw4zFon4HWWVXQRwo27t-21" value="" style="rounded=1;whiteSpace=wrap;html=1;strokeWidth=2;" vertex="1" parent="1">
          <mxGeometry x="222" y="92" width="83" height="39" as="geometry" />
        </mxCell>
        <mxCell id="dw4zFon4HWWVXQRwo27t-23" style="edgeStyle=orthogonalEdgeStyle;rounded=0;orthogonalLoop=1;jettySize=auto;html=1;exitX=0.5;exitY=1;exitDx=0;exitDy=0;entryX=0.5;entryY=0;entryDx=0;entryDy=0;endArrow=none;endFill=0;strokeWidth=2;" edge="1" parent="1" source="dw4zFon4HWWVXQRwo27t-20" target="dw4zFon4HWWVXQRwo27t-5">
          <mxGeometry relative="1" as="geometry" />
        </mxCell>
        <mxCell id="dw4zFon4HWWVXQRwo27t-20" value="" style="rounded=1;whiteSpace=wrap;html=1;strokeWidth=2;" vertex="1" parent="1">
          <mxGeometry x="81.5" y="92" width="116" height="38" as="geometry" />
        </mxCell>
        <mxCell id="dw4zFon4HWWVXQRwo27t-25" style="edgeStyle=orthogonalEdgeStyle;rounded=0;orthogonalLoop=1;jettySize=auto;html=1;exitX=0.5;exitY=1;exitDx=0;exitDy=0;entryX=0.25;entryY=0;entryDx=0;entryDy=0;endArrow=none;endFill=0;strokeWidth=2;" edge="1" parent="1" source="dw4zFon4HWWVXQRwo27t-19" target="dw4zFon4HWWVXQRwo27t-5">
          <mxGeometry relative="1" as="geometry" />
        </mxCell>
        <mxCell id="dw4zFon4HWWVXQRwo27t-19" value="" style="rounded=1;whiteSpace=wrap;html=1;strokeWidth=2;" vertex="1" parent="1">
          <mxGeometry x="-26" y="92" width="85" height="37" as="geometry" />
        </mxCell>
        <mxCell id="dw4zFon4HWWVXQRwo27t-17" style="edgeStyle=orthogonalEdgeStyle;rounded=0;orthogonalLoop=1;jettySize=auto;html=1;exitX=1;exitY=0.5;exitDx=0;exitDy=0;entryX=0;entryY=0.5;entryDx=0;entryDy=0;strokeWidth=2;" edge="1" parent="1" source="dw4zFon4HWWVXQRwo27t-10" target="dw4zFon4HWWVXQRwo27t-5">
          <mxGeometry relative="1" as="geometry" />
        </mxCell>
        <mxCell id="dw4zFon4HWWVXQRwo27t-10" value="" style="rounded=1;whiteSpace=wrap;html=1;strokeWidth=2;" vertex="1" parent="1">
          <mxGeometry x="-176" y="185" width="120" height="60" as="geometry" />
        </mxCell>
        <mxCell id="dw4zFon4HWWVXQRwo27t-28" style="edgeStyle=orthogonalEdgeStyle;rounded=0;orthogonalLoop=1;jettySize=auto;html=1;exitX=1;exitY=0.5;exitDx=0;exitDy=0;entryX=0.5;entryY=1;entryDx=0;entryDy=0;strokeWidth=2;" edge="1" parent="1" source="dw4zFon4HWWVXQRwo27t-7" target="dw4zFon4HWWVXQRwo27t-10">
          <mxGeometry relative="1" as="geometry">
            <Array as="points">
              <mxPoint x="566" y="215" />
              <mxPoint x="566" y="297" />
              <mxPoint x="-116" y="297" />
            </Array>
          </mxGeometry>
        </mxCell>
        <mxCell id="dw4zFon4HWWVXQRwo27t-7" value="" style="rounded=1;whiteSpace=wrap;html=1;strokeWidth=2;" vertex="1" parent="1">
          <mxGeometry x="349" y="174.5" width="197" height="81" as="geometry" />
        </mxCell>
        <mxCell id="dw4zFon4HWWVXQRwo27t-27" style="edgeStyle=orthogonalEdgeStyle;rounded=0;orthogonalLoop=1;jettySize=auto;html=1;exitX=1;exitY=0.5;exitDx=0;exitDy=0;entryX=0;entryY=0.5;entryDx=0;entryDy=0;strokeWidth=2;startArrow=classic;startFill=1;" edge="1" parent="1" source="dw4zFon4HWWVXQRwo27t-5" target="dw4zFon4HWWVXQRwo27t-7">
          <mxGeometry relative="1" as="geometry" />
        </mxCell>
        <mxCell id="dw4zFon4HWWVXQRwo27t-5" value="" style="rounded=1;whiteSpace=wrap;html=1;strokeWidth=2;" vertex="1" parent="1">
          <mxGeometry x="41" y="174.5" width="197" height="81" as="geometry" />
        </mxCell>
        <mxCell id="dw4zFon4HWWVXQRwo27t-1" value="" style="shape=image;verticalLabelPosition=bottom;labelBackgroundColor=default;verticalAlign=top;aspect=fixed;imageAspect=0;image=data:image/png,iVBORw0KGgoAAAANSUhEUgAAAMgAAADICAYAAACtWK6eAAAAAXNSR0IArs4c6QAAAERlWElmTU0AKgAAAAgAAYdpAAQAAAABAAAAGgAAAAAAA6ABAAMAAAABAAEAAKACAAQAAAABAAAAyKADAAQAAAABAAAAyAAAAACbWz2VAAAadklEQVR4Ae1dX8wdx1Xf+5WHSIi4L7YFbYyprCaxvy8vgFq1UG9AkQwSNG0axW1AisRDUcUDQkJIUasvVlAlhBBElKLQh4BK/lhJmlQ8YKlFvS4NdUV5qe3YUEuJnBZUuw91Ag95ycf+9t5zv7l758yf3dnd2Zkz0vft3Nn5d86c35xzZmZ3Z4WEXjlw6v7T5aKBrbLY2zvJNLbMs3F3vpEym53fT3tnfu7l5zbz7GeQWEcOzDqWl+IVBxgQlAMzZ14IeIKzXADSgqULQGyRRihbVDFkkSVwRNu0YboAxMK1lXbYm+0us5aWIrHfXmmacy8/81jsnR27fwIQZgRqYCxAUTJZ0kiezc6AEAGLfjgFIApfsgGFQvNaVMCyxg78yB4gfYLiwPG7a4YfOHG8oDiNQPM3pXPXW69eWd1ai19+tVB/rzJ1jQhYag5mCZDQoCBhP/LgAzVT6XdXGfUtD6AQWG6FBE4FllxNsKwAEgoYAABphbHA4AoeAk0QwGQIlCwA0hUYAMHY2sEVELZ8BBjku/78i7bs+vsZmV9JA6QLMFIChV7KF6nXX/hK0UG71EvGKZtfSQKkLTByAQUHmE5gSdT8SgogbYEB8wngwJ+Efc3ibYIlCJJkAHLq/k89Vh0GpN1uq5yTthBQmFkFrZIzUCYPEAGGWcBD3QVQELzAkoBGmSxAfM0p0RhhoOINlImveE0SID5aQ4ARBhi6WrzMr4lqk0kBxEdrCDB0Ih0+DSDxWCauloX3ql356Tzk9a7wLOunxoXWKJ6qaj9qawGrUu//zKeL2w4etGWV+x05gInocPmR6lTfbHXMxVDl0SrjI8fuvmd27erFuSFfNLcmAZBTH/3kNyqOPWLjGgbrl7/whCzX2hjVw33S2I5AKacCkqhNrKVJBXAYAw0OrhLG5wAdZ3Fa8Zrt3RuzyRWtBlFMKuOIizllZM8oN2Ha1pOVk9kVt8kVJUBcTCoMwPs/8/vF4ZOV/SshSg5gjHDq+e2bN6u/H5v6GK3JFZ2JtQRHaeImtMaRT3zclEXuRcYBxyXh+bmvPntvTF2PRoPA3zh25w5WqUoTgwQcJu7Ee8/R5Dp67K6d8tp/XvqHWCiJQoO4OONgMMBRMzoW7nn2g572QzGKYw9BF2CaUFBpVuN0f2rXi2f+dEU/2/dInPfRAeICjqlqDYCAVnIIEKxAeNwASKbyRCNHlpPJFQFIRgWIy5GRKYGjL0BwQkbpUwWMG0jGfR5+NICkAg4CRUgNQYLf9jqlSSV2kIwCEBdw7Ox+Nmp/I0ZgNAE1FaCAl/BLjGGkw46Dr2JNHRwYzO9/8ckCM59lbd843kPcrEGM5ziqDbuYnft6Y7FalLhx/psmtoyyVzKoBrGBA4OIWS/WwXRafTEM8Xvf+3MF/hDe856fXeWktFVCFfnBD/579fOHP/yfVfzChe+u4r6RKWgUK48HdtwHA4httQqggFkVY2hrTkHwP/CBX6xJ0oGgC63f+c5/1MV9ASMg8eP6IACZMjicnEiF5wSK0IBQmtBGARgfsMQOlFg0ySA+SLVD/pp2VKvEmDWHDzg++MFfKh544LeK48fvLG6//Wc4cntLByDRh1nlbyC8+eZbxragFWP2TfCMCfrI+3mzo0PsuPeuQWxnq37l7NPGgRzjpqtJNZa2cOGJqwk2cU3S+9mtXjWIDRzwOWJ86u+7f/CHhplrIZ6Yre+7rxxFW7gABODFHzSK6vA3y2IywF/9VGDzZgS/bzt00LS61fvZrd4AUq9YGZ4CjHWfA7Yvr9aLWugADJhSUwiq6cUBpaY30qVghyXgo30+ndgLQGzLuVDrMT7HYXMMIWzwM8bwMbqC0aZNoEVi9UkcQFLtkWyfv3b10utd+dQs3wtAjt25zT4mG6vNC4fctFFFJlWTgVP67QISHIKM0eyt+1RpuRrIWqb347QHB8jStCp1NMQKDjAdu+NcADhoP4PLM5V0gAR/V678l7bLePovVn+k3kDmQdKLPxIUICbTCsThVTwxhhvn/5WdmVICB/EeJiIHkpj9EfQfcoQJjfETg/sjwQCy2Ays31tF47B2xet4YgymvY4UwUFjAJBwK1wQwFhNLfTfsrIV1B/ZIoZ1vu7NjH5H5/p7qoB7og/NcWYVtxrUUxc7VYu+cv0FfdAkukAPeunujZ1m3Vze/6Z9567+VOcaqgqWppW2qlj9DnQWMyX+dAHagwIEDBtvqqBNQbvojp8QXQR+XFW6iObYrwAJZIsBcgmZDPHlq84mlsnvAJNjPYCIvnG+B2ZV7HVAcJ566pnaoW0e3SDQwEzhZmG0MWZ48cV/2mge/cYf9RumFk4LN+mDjR+zmQXCLP5IEFOrM0BMS7qx7pST1GDfQxewCQih+drX5rrba2mqsK3dGPlHU+M1u0MAB7jxp1vVinlFi+gx+yPdl347+SC19qCeNq5Qf0D4VIPPyVjkfeKJJ2szzEQvCaVNeE11uN5DWy6BtEysWtBGA5laTL7K1DpdMveckrv5IMwnz2L2O4grWL3SBQiKDzjUOqgc2ffqPcRRNwkk3UMaCSceoqI43W9zBThcAYL6AVhd4PwzXd4x0/ASQfYTDIvFo9aHclubWEvtUeoYQ6+k0d2LJY1z0Ju2uG9/SUuQjd8s37T30R4JNMwcCCvyvPXW/9ZXlPc92oJ6fACCPsCs1JWJ3Q8h/ppMrS5ntVoBxLTnMQXtAaZi9YPZbCKer123K3PxyS/8ZXH6wY/XDu4lZvWLCkHYdCCB8NpAqAMNgIP6AB4EE2iaWor6BBpuMO/I1YED5SB4UzCVLUdRWjvsLU2srbIo9sC/jZDqO3Mf3310RetDn/hYceL4XcXZ518qTECByYU/dUm4y7IqmXCrjlQR1URD3Zy5hDKgAf393JnPq1UkE4fsMcu+lbjOditC577EemsQ07LulBzz7/8tf/aqyURoDcy+ajhUveL/18pfddYmv3Dk54t3336gePeBA8W3L/y7WlWnuKptAA5OExAN6PflV6+ymkTXmVjPZun6CpOQOXRaHUPxP/Hrv4rFOObobKraQzcQlAZtgpm5CSC6T9fnnv9K8Rd/9Te1iWTLS2VCXtHPHALMQdYkbLHD7gUQ27JuDgOgoxECD5BglrYFAIUzy0KsYOnab/Zr+8S6NtSVmXIaLBkmeC/7+vkgjPaYimPOMC1YsqtvwjUIE+zxLz1a/OTWreJb376wcsh1vgdXh6QvdtihRbTL1J6+iDNAlr6Hlv85mlZaRlSJ0Cbbu3cXZ194qYC28AnQLLWfUgHl6B1Hip+8easGC+2rwL+gVSzEOX+j2WYu5pVKNyZt5qRErUVcv4voDBC1cTVuUGdqtuziEEr8+QIFICEfRQXL629cr0GDK8Knf++RGkzID6cb4dLlKxvmW9O8qjNm8I98ka5axAkgppWrDHjdiUSavX21SbNRaBQE0iwAD0KtsSqthUBtqaChtDpDZv9CaBEvJ73JX/E9mhzR/4aQvnT2y05OPPZWbIHAweUDaNBmCHBg2XSqgbSItv+OK1puAGGcc23DE0lklwJ77D8ENleTp0e2Gqs2uABOK1pWgBiXduVLs8bB0d20aROYRxLCccCoRYqt0taSFSAFoz0MyLS1KfcrDpi0iYAkrIiwssrIttq6ESApa48YbGtOm7j4Ieog9hkfwxQNTY9Ji9ieFzEChOsoi0iugKQbOWDSJsaCctOZA+yEaHHWzQBhVFAKG4OxzYyqNonJxIqNT86IaGQ00FE2sq79ZAHCmVeGhtYqlh/tOEDaJCaQtKMkrlKQW052TWYWCxCOPFZVcQUk3ZsDAAntpnsXDliAE6iATQxaFesaGMwsHiAJm1cYldQGf1BJm2hjhjEvOZK0ABHzimNXXukpWgscSDgzSwuQau/jpE4UUmKY9hCbjuiM00yvZZ0qW3zNLD1AiqLUMSCF1SvQhWPQzFFoHdnZpmES+dZDDxfcK5KmyBhOg1S0lDp6NgCSunkFYIj20IkCn4YXIeQAEp2ZtQEQjk0pmFcYZAEHN8LmdIAkFd75mFmbAOH8j+UzB2Y2xn2XfSVM3N2Opnc58m8TIIwtZrDdohlAU0dSmf1MNPZ9LxUeGmS5bPJwDSAp+x/c4GJDTp7R2BcL8MPlNUb7JaYZ40DS9EPWAMKRmoL/wTEENNM5qBh2r7kxGCIdEwWBI99XA22VKq/XAZKw/6ESzcVTFwqObkrH61Qp4AUQWYYGBtYBkqj/YRpoORRo4s76PZMWXs8Z/y8DLaXa+xVAmrYXZTJURFkmcU2FjqGYncPEwcmEioUVQIpiq9QxPwX/g+jiGEL35WrmQEqyAEpd6FEAYmZOyndzmC19xi8XfvAT5lZJ/NoHSMM5oQx8JZRDrsKBxDigYGEfIAyNKQHERaUybMgqmV5l2iQ6JVkAbS70qAApmwxJ7TfHEE4gUqNf6HHmQEk5je/m5QSKCqdyxZo/NgvpLxW6ODra0pmiPIAm3SkLrGThDfC1BlGXtTimSno+HMh2k1AzxEsTa6vU3HNaBtOVizUtxRkwVl5PpV82v1T1QaZCU6d+6kCSy7KmK+N0/NDxzbW+mPPxdG2V6LcRIHxhFE0/6AQlJapTp6/TWC2XehcAUdZ9O1U64cJNYcGXoWJ6R24frAV9oFMNTT7QPZspQvlSuxo1SGrEgh6Xgfb9bNpU+QQw4MtXTZBMlZ42/bZZSUaA2Aq36dDYZWw0qeDgZtOxaQjdvvppatkTWueuESDrWdP+ReZG128JToVLTfB/7sznNz4AqtJim1jUvCnFjRuFKRFqowUC0xQalEFaLk8aAiRcyBUgpEFKjjGppWOgcx1sdSzFlFK5oY2XSCWAaHOkmujiqKdKexu62PdItalsYmWyBAheoeqqRXKfaQGOVF45y2HTJAtZAgSM2tn9bOEyM6Z6LsmFLghO6uDgQEPpWTvp6uDn+NZAEgL1SrMpJg+Kq/dTjOtO8xKdWQMETCCQ4JrTi611K3YABDSrhH0OkIk130+SmMoBnSCp9yWeLAfmoIwAkiyVQtgmBzjQy+reJq8EIApPOAHhBEopKtFEOWAEiMl5SZEfuTiluS9d+8iuESA+FaWcNxeBymWCUGXVpgQEICq3JC4cIA7MZucRXQBk+YPu5XrlZlCXTbUp8Yyjh6N/SrT59tVRg7wz11VsK6wrM/U0nZDASU/JUU+Jlr7lzWhipfidbBtDuZWsVPwQ7ulBl2M3Nt6ldX+hNIwASYtgN2p0GgQl1afu3GqKLxc0Ry4PhLlyn1MCeGkc6qgBQj+aleZqYnEgmfpLHEz9pyM3TRlI/bdNxlUNMk+dGa70ceYGZmDORHGte6x86Dfne3D0jtXXCNqdUx9UgFDa2tWGsLXMifyABuG0CEyUqYEEj9KaTCvRHrzgWgHCF037jmlWhbB97KHfjR4o0BjoJ6c5MIImOtMeYQN1yrbHPkCURLVors9JQIPYjn7HDBRoOdNLGDDGAEeu2gP0u1hH+wAp9HshqCjXAJC4zLAxAoXbDKSxzB0c4AO3glUoWFgBRFaySHTWr5hhXUCCUjEBxWZW5aw5aIQ5DaJiYQWQZaE5FVavXEVqnpTjECaYW5zj3qQ9JqA0+1Y/i1/Rk3swyPRc5U0TIOq9VdxQ2SpP6hFXcKh8iBEobehQaUolzsp0wxdfB8hs74yOAbytpsudbhp3DMVG8dBA4cwrAYdtpDbvr720AbbXqY9+ciMXi7aNnJJg4gCAgr8u4aWzX+5SXMouOcCtzp57+ZnHVCata5DFnbmageICEv6zwY/vPlqcfjB+u76tBiQZyPGqA0iOfOhMM74ci9k9BqCkcvK486AwFVx/gdHis9mGi7EJEMYP4VQS04esklWBjAkoWQ1CT8RuAoRpCCaWmFkMczTJAhQNUyJJ4ib7pv+B7q456UhYOurzKlpWf9kHmhTqCeLyq978AFDwV5+mvXzFu3zIAhAMdUVS9UmwwpXDKhdrXhXFXMfrDYDUmWBm7c3KZgEw2HY+qVlmKr91QKA0Gw041gEQmAIBxZQn1D3TMROVJjWutk0nB3IBTU17Y/+D+KEHCN1tXMFQ/KUw0xAtmFE5QWmQn81PnQlSg+XE8ZoHUz6moqMNROnMK6RrAZKimQUQEHMEEBh6v0ATCkqBj1MEjK95BVq1AMGNYuJmFg1ojhqC20mvxzXQP+IvqlMBM0mzjDGvQBsLENOuOpgTm5mFPiFgsCheJ8i/QTigAgYNxujHkAXRZAhnXiEfC5BlJfPqWi7jq0ssAEE/iOjQoLjnjhs1vQ9/+OKKbkSefmWn+N4bh9bShpix1xps+eOf//jZVUmVhotvHK7Tv3f90AZtqwKeERoXKkaAGct/Yc0rzeYg9RlXM0AMZtZYhBIo+gDEPUduFDt3/KggcKiMovjFKo8qXJQey5UDa5Mm9TfFH/7QggrQFxo0BBhcxwALte87TkaAcGYWGoGADmVm9QEKCAVpBxIQX+almh/8IJ7oQPOPr2x3Ip2EFVdy9vuccFntUVFhMq9ApBEgSy7Mq2u5jK8uIK7PPZHQoOgbEJi5t6vNtlTDOmgu1lqUtEwXwGCcaaz7Aou6Obo2PhbzCnntAGHMLCIspBYhRuHaNdQD6mAy+bYDE6wous2gvm365FfPhanlYD6GDBxguvgxJFOYfEOZYdAenDzZtAf4ZQWIaU8klBYJAQwMGALMJorXCfJvEA4QYMgke/rfdup222oXyJYagptgDtoD7VsBUneyRy3S5cuyGJRY/Ai81nN7d3wTq+sDWapQdok//KHF6h+u5PS30S4qUGoTzNOMVcu3oWfmWqh60vAbVd6ymR+dbuOLQGsAHL4hBlD8xp9vPnUJOsZ+2g8HIjmAqEu8vjwPnb+LdoHp5apNYF5pAVJpDxfzCnS7aRDkDKxFfMBBoMA1hoB+6JZ6IaC2Q4tj9D8WvhHtqnbxBQsE3lWTaMFBnXC8vssxX3Ht6qXXj921U1b5jzbLvH3zZnG4/Egzmf1tcpyoEAb1vp3XahPqdz58qTh84P/o1uhX9OXrl9630Q+sZI31RKFJe4CPsYGEmId+4Q9jPJvNtBMP5aWri7yZZOzcV5+9l+qyXd01CGoKrEV0nQOzYne0aVBj0iKcaQUe04yt43dMaegn/ny1SpMG1rRCRkfnnOrcoojLFStaXL4Q6gyzyJ+d/pdoZzuVdlocUNMQh6Byu9nNvKF+Q3twATydWiCg9NF3V9+DeOYFkLrQbE+rnuqlWu5heGrNcl3sMVgyRXIbWoQLpg/VcGXapptMK9Q5Fe2ho7+NPITUHuiTN0CWWmSuIyiEFtHVG2saN8NBg5hm9VD02MDB9S9U+zHWw8qgx8qVSpc3QOrC8EWY4LM6xVQxmWTMzpwmganVJ0hcwDFl7dFGCKA9QodWADFpEZha+MslcL4I6O8LJDZw1AsdFXhzC6G1B/jXCiAoaFoqYzuKgokFCKPJlAkJEphuts+pgb1Y6MgtmLSHr2Ou8s5vmVctiTiWzPb2dpvJ5LC77ng2y0/tN5ky3LkjgASh7SYigIFDiFSPiT+5goOdlD2XdZu8dd4obBbE72tXL865zUOABO9duu3gwY2inBl23/ZrUW0IbnTckABNguPfP3rzp7W5yHHHZhjCIQ1fmgVR5q+/+KXFO7WquC1MZYncRgfdBy91G7KQKXVj2uT3miwdasd07aZBUDOzeYhbQHWbc1ooO8UAAf2T537duBusagE8P7J9Yv+Ao/o+K4DDNQCcOWoO8McEDt9NQR2/OwPEdBw+N1MLDIagYieYM7fUQQAIfICglqV4zuCA3wEZ04aWy7rNulo76WpFSzU2V9MoDi3CEkGZErvCJzE57iHIJWDkqjmMG4IVg7s45ur4BAFIXaFlb0RAorK9fRzAAPgADMRzDaxTDoYwpz3a8KqTk642WJ/2vfseeKClmk5x9QQmwKIDzJSddKJTvZIwwzHHI6+6w41qflMcdf3Rb16owZELMDgn/e2bP+ZZVZtWz/49n8HvTmcfRG0Oaq16sOpklVaq6YgDEFCLuSz9qvTTMjDOFmGly+XJOgIBbUTSb7VeiTc4EMjvUGsNChBUDH+kAsme2gjFjWqRMiV8hZDjj57bBqk6rSJgaCcEofwOtfXgAKkrhw24N8MjuhsBIAn5JpSNBiaWIGAINGAdNwS5XoRz0pUW6rNahg7r/A+luESFA34c6MG0og70AhBUvlR3c2pIrsKBnjgw78O0or72BhA0YNofoQ7IVTjQgQPzrkdJbG33ChA03jcBNgLlfrocGEK2egdIPTwBN27SHW6hzIsDA8nUIABZOO36Z9m9mCKZhQMLDlR+B/8CkZBMGgQg6LBtZSskUVKXcCAUBwYDCDpcrzYYln9DESX1CAdCcWBQgKDTsvwbauikniE4MDhAaqIMXxUdgmhpQzjgyoFxAOLaO8knHBiZAwKQkQdAmo+bAwKQuMdHejcyBwQgIw+ANB83BwQgcY+P9G5kDghARh4AaT5uDghA4h4f6d3IHBCAjDwA0nzcHBCAxD0+0ruROSAAGXkApPm4OSAAiXt8pHcjc0AAMvIASPNxc0AAEvf4SO9G5oAAZOQBkObj5oAAJO7xkd6NzAEByMgDIM3HzQEBSNzjI70bmQMCkJEHQJqPmwMCkLjHR3o3MgcEICMPgDQfNwcEIHGPj/RuZA6MBJB35jq6n35lR5csaZlyAF/j0oYB34ozEkC0ZNdfW9J9cUmfW1JT54DLp7T75kGwj3j6dLT+4OddO2VV5miz3Ncvva/6/nv10cuMv+Da5EluvzFJPvJ3v82SPcRb3anxfj7BRrWbrvhs9N6s1GXBzEGzhwBFx6F006wWxMCvrsVnm0cL1cc+8R3DcrQOSMOT40ClPQaV2XF9EGgRCcIBVw4MrD3QrUHRqOPDqftPl9wXcXX5JS1TDlQfzBnqmyAqh0cHCHXm1P2feqzY29ul33IVDiw5MC8qS2MMcKD9aABC4rAEysnqd0lpcs2OA/Oa4hGBQRz/f6Ui08V86q3oAAAAAElFTkSuQmCC;" vertex="1" parent="1">
          <mxGeometry x="52" y="183" width="64" height="64" as="geometry" />
        </mxCell>
        <mxCell id="dw4zFon4HWWVXQRwo27t-2" value="" style="shape=image;verticalLabelPosition=bottom;labelBackgroundColor=default;verticalAlign=top;aspect=fixed;imageAspect=0;image=data:image/png,iVBORw0KGgoAAAANSUhEUgAAAMgAAADICAYAAACtWK6eAAAAAXNSR0IArs4c6QAAAERlWElmTU0AKgAAAAgAAYdpAAQAAAABAAAAGgAAAAAAA6ABAAMAAAABAAEAAKACAAQAAAABAAAAyKADAAQAAAABAAAAyAAAAACbWz2VAAAU1ElEQVR4Ae1dS4wcxRmumd2xvV7wEwdBMAk4zgMUBDHJASLRThQnl+SaCxyinFAuOYRrvHuMyJ1TxCGRuCWHIBI5IR6koIiAARFIIBubh8FGYONdP/Y1s9Opv3tqpru2erqqpx/VXV9JM11VXc+v6pv//6uqexiDAwJAAAgAASAABIAAEAACQAAIAAEgAASAABAAAkAACAABIAAEgAAQAAJAAAgAASAABIAAEAACQAAIAAEgAASAABAAAkAACAABIAAEgAAQAAJAAAgAASAABIAAEAACQAAIAAEgAASAABAAAkAACAABIAAESkKgVVI9qEaBwFNPLnmK6FHU408c7Y4C8FSCAAhSAux/efq8N8PYyWhVvu97IrzWH7DVni+CLAwPRmHy7O60eZpBN4j02Qt05QRaCML4KgwBECRnaIkMVKQgRJQIplUJ4qgII8oKiLM5WKTwl27Z1f3eTw53xT1cp0cABJkeQyYkxDRk0GnG5bWtINnltf7k5D4LCAMJMxkmnbsgiA5KijREivZg4LXa7UeKJoaiemZCFhBFhaBeHAiih9MoVVnSYlShhofIAqmiAVSGJCCIJmjP/+b9BdZqxQxtzaylJdMiCrWGq2CQKnrDAoKk4BSoUr5/OiWZVbdBlPyGAwRJwNJGVSqhqYnRWkTh0uTA7jb78c+OLCQW5PANEEQa/CYQI9olsVSsY6NA7YoiF/pBkAgmdbAzIs018mpJEyoR9kkMVxCEw9E0qREbYSmgSZTu4784elzK6mTQeYLU0QifdqZqkgTShAPdnhbsOucnlapdsxWqPPA+ODfDDs7NphfVYif5gcqF9ITNTeGsBPnb0+dPV7EDbttU+vBajw5BpjXLWZXLSYKAHHE+gCRxPKIhpwjior0RHexJfgO75DhfDu5OKqtJ95whCMiRPm1Bku0YOUEQkGP7wCfFgCRxZBq/igVyxAc8LUQrXPQQVqrjK1ypaRqQQAOJevfSxWXcaUfsjps7OiTxnvr1Uq0OcWbBpdEEodWqLKAgD+P7JPyh4XTnNX2fpLEEoU1A7HOkz/CkFHOzbXZ4Tyfp9ji+4ZuJjSRIkw8djmdm8T4iies77o1bxQI58ieOyytbzZMglj8Wm//0Lb5Eg5Wtxtl8jSJIID2Kny9O1qBptLOmrWw1hiBQrYrlrbY9whitbHnFtqa80htDENvfOFLekBZXk4Gq1ZhNxEYQBKpVcaSQS9ZUtRqzP9IIgkB6yNO4uDCpWi4dRak9QSA9iiNDUsmaUoQ1YZe91vsgMMyTpnDx8a7sjdRagtCLo4ufCqhBhYCuFGE1P/VbW4KQ9MBZK9XULS9O66xWzZd9a0uQ8qYBapoagRpLkfoSBEdKpp630xagvaLFpci0dVWVv5YEwcpVVdNle726tkhdd9drSRDse2yfqFXFkBTRcjVVszR7pwVBKYkgPUqB2agSrY3DmhrrtSMIlnaN5m4piXXVrDou+daOIFjaHc/5/beM/VX6mmys14ogUK9CGhAxvvFwiz3wUIt950ctdtdXqj8QoStF6masa7ziu8rfJtQdRYCIQWTYdzAaS3Fh/LvvMPbuO378ZkkhQ2O9W1Kzpq6mXgRxdO8jiRjy6FdNFDLWNd4U78nttjlcGxWL3pBoM5BFtY0kBqlSstSYVJ8gig2ql6qddVKzaiNB2oOBx/c/VHg3Mo4mN030rG6cN8SsDNWL1CwNCZK1S5Xkqw1BKkGngkp11SndpgmiEOGKtlF2d1rs8ppWyzyeqquVsuJEtSEI7X/wJd6K4Sqm+rxJkdRKoXotX2bsyqX8DXoDQ702jynUhiBN2/8QpKDJbGJfJE1+k3iqjz5CqlDevFQwTUPdpLmVpq0FQQIDvSHSQxCjbFIkzTJZBaN0eZElqU4e7024Z9WtWhCk7ga6baRImoFRslAaslnILV/2A5UsDE3+1jXUaSWrDn/lVguCfPenX1jgu+jhyFi+F0JkICeWWG2RFGGrzL4FYRg/REVO2C799VV2dbnDVla2Tx8DQ92sMRWlru26afDPUbT0S65C0hAh9h1ssfAatKbxX5vXrrJBvxf08+rK+C8SiDBr/C+lz30cTquPL810h2B4w2v0Uou/lq4VQdaWXhsC3TrJkR76Gdu1Pzx7IVQCGgVSC4SjFZssTkgDkZeIQE7E11k6iD5luUYJop/fX6S0c0cfWNDPU33KWhAkJEacFAK62bndbHbXnAhqXUlVSHKuTvokPFTxJD2IJNmdv1gXolhPEE6OBa5DkcRQuiwEURaESG0EpieIqMp+olhNkLWl109zKD0Bp+q64+Y9rD071oNVaRCXPwLrVyaIYbPqunNH7z9ulqW81NYShJNjbERMwEPYHxOS4FYBCOjYIfTDJYz59Cb4x7na1U1PV24KK0/zDiVHuUigttwR0CcHVZ2sRufeMIMCrSNIaHNMVqtE/6BaCSQacfWGY29VZ6wiSJpBbhVyjjem3SnC7mud5HPAswlaqwhiCkwxg2TaCjfTt2e376KrkDCX8napWtYQJPzlsAsc1YAjzgwBMzskKJtULc+sluJSW0MQ3kVrQCkObpSsiYA1c8EigrQe0QQPyRqPgD1zwSKCQII0ft7rd9DTT1psSpsIUmxPUToQyICAFQSxySjLgCGyFICALXPCCoIUgC+KBAK5IGDNWSzds1fRXuMkbxSNcv35nehVt5sfYLRibtZaggx64VNtaogRWyQCg35fq3jzjUKtYktLZBNBuqX1GhWVhkCGjULetvDpw9IaOaEivfMCEwrI7xaB0vLyK6/8ks5euMJOnTnL6HriwSPsxLG7S2nEU398JaiTKiuz3lI6V3ElNkkQYyiy/ToZV6OdITpRT70SEkU7c8aEp86cG5GDijh74bOMJZllK1K9telxXGsIMnxYpms2TMzggRzTks3Sk9SQHUmTsh21Q9WWvNtR3I+TPeoVYWYNQcIBtAucvCdVEeWVJTGKaLuqTJukB7XPKoKEUsSMJP01vdeJqwaj6Lgjtx8ouopKyu+vF4W52diX0XmrCEIdDn9B7AMqbTCO3L6f0SfqjtwWD0fv5eU/cexIrCgy0uV2xBJYG7DzDSdWbMaoxkznjSYiXx4vbvA3BmzAP1HX3tlmLf4xcaHR/BlfwSpvolKdwhEpTQhC/SYX7Xtav3Ve2CDao3m19s0m1hKEgOXncRZ0HubP+uofmhxbK73Y5FAN6Mze8PHSmT0WrYqrGqoZp9tvKo76Lvdb55U/+m80sVNyCCitJgg1UockNBhEEl23dbUfEEM3vUinmiziXh2uJsSQ+yP6TvZHf21Vvp0xbDc5qFPWE0QgP4koJgTJSg7RDrp2PrfTWPWK5q/CT+TofbIxVdVEEn9HLweC2E8MAVRtCCIaPDwG7XFuiycQuZ91uQTx0s799PkEieraosws1zqRJA9yjDCa4bba3PooOMHTjd/zX+BhbmvY93K4eDvjodoRJN78cch//50FNr/75Dgm7stDckRLJEN2lkuSOrjN8/kuy5IUoU+yq4+ESO5DeMdsiSattCrvr252J1VPxniejiQRkc52V0QbW5uT34ll22bfNGPUjGUZjkDra1/v+hfOddmOjicDUsQkoTr89S3GDFe2xHkt2q8gl3agkY6NRA9Ami7j5v3DEDSaf7W2Zpg/w/u/zdVvD2tbFyIRjSFI0KeVG4vs0D4v0r/AG0xkOTKHMEkR0u9190qiBwvpMKNwSSSh9NF05Kc9jsdvf1BkrexKUsSfUxGksiYVUnGjCBJIkUvnuxwprxC0pixUdW4qPPX7GZ/44bEUkhBnL9KBw8+Uhw5NDiISect2TVKvCLtGESSYDD5b5IvXXuC37It215+68Mq2VpmcwBWq2bZCrIholnpFkDbHSB9OkNahw13upU8pTle9osaQejTNBA/yGzyEZdI2U7BU9kfTpAdh0jiCBANNUiTiaIOrCJelXLI3spCE8jz+Q3Pbg5ajC3F8PyTumic9qH+N2QeJDxZfYbp0/jSP80R8npuEosxpNgvFAcOoES7KjV5DqZH94GOum4TDhin2Qaw9bBjFMou/uQT5z788vqJFJAlc3hNFnE0S5U9zFWQRRjwZ7OKoPBFkWpf3JungJvksVnM2BmWsG0sQ6ijfFzkd3RfJiyR5kkMekKLCeZHEn9uQ9j+aSw4ai0YThDroX3zXZ53xYh2RROeIO+VVuTqSQ/RjKpJwmyNQraTNQVte8Cb6mPe1IAsu72ZOUd7y9eOsNz4SQis7dIbK1MAmY5dsDvnZiClaVnpWavuOw3NmfSdicKlBBxS3r1w10zCPDkzjJQh11v/0/AKXlcqDjCRRgh1xOjbCHfmjKz9EpCKXS4NKK/oSR3CiJw3EGxMDMhA5JIkxbmqzVSvRTycIQp2V7REBAK5xBDQfp23sqlUcjabug8i9pHCnsxhVtVRJXI+jpwX13nfVfNVKzIXm2yDDngY77LOzi6LjuMYR0H+UNlCtuvHczQ05o2KJIZxkj4g0rl0NybHgEj7OSBAxqFySLDDpKIq45+KVVCq9lzC4YZTLc8A5CSIAgCQJ32tMRnm6c5MchIuzBKHOu0wSkhwgB82Cyc5pghA0LpIE5JhMiuhd5wniGklgkEenf7ofBBli5IIkMSDH8bq9vyp9qmdLAYJIuMnPkUi3axvU3SHnSuciyDEeZhBkjMXI1yRpAntjNKyZPCBIAmxNIImOShW+hX0TKlXCPABBEoAR0XUkSrj5p3Ouyt39DTG+aVcQJA2h4f06EEWfGPTWF9gaOkMPguigFCUJ+ROeLTEoKtekIEaucMYKA0FicOgF3r546fTLqzPeo3uv62UoKJUuMd7cmmd/2jzY/eV9B44X1JTGFguCGA7tr5b8hRaXIGdubLErfZ89tu86K5soJsR4ZuMQe7M/L3q5eOpYZ0EEcE1HAARJx2iUQpBDRPx1JXzW/ckvz7D7Zq6F0as6h/9ECfpXXVK0525i6+1d7KPWTeznF0bEiFYEkkTRSPGDICkAidsyOSieJAhJkvtubrEnj86IpPyPFYck6fG/PKNPBkeEIEf/Ay/8qmKIEORmD9zKyH99eYX1ez327Ope9u/12aB9inwgiQIUVRQIokJFilORQyQ5x1/ycG59wB67rc0e5R+lI5L0h0RRkEYQgF6YMOCTW4TlsgQZ6Nqemw8IEU2zvrrK1m+sslc3drMz/ENOkDiabugHSRSgyFEgiIyIFJ5EDpF0ZI9MIolIHL1yshAZ6BefJvaZd95ld935eXbnbYdGqYL/Xeyk/9WbihyiEEFiEY5cQZIIGCpvwk+eKql7cTrkIFSOzc+w/bMt9tuLA/bGdV8fKD7xSRqsbmyxwexO9s+zF9g/3n4/iAulBFefNMghCHZxqzOSHNFG3M3f6XX3LuVQnzxxprcQTQt/HAElavEkboaeXPI9Wq3S7T1NQnJEEhNHv/zk/nfxE7Z3zzz7gF9///yLJkUE0ocyPHtjb2K+SST5wcs9LzGj4zdAkIQJ4LfY6YRbymiSIPQr/cY1nz2xpPfXZEItInIsXeAEuXme7dq5gy299xEnyqfKeuRIKoMkCNkdaY5IQu2U3aBt1lc5f5PDIIhidEm1UkSnRolfaSLJ7zQkCdkd5IgcwhFJyD3zXDo/BcGiRrkoJ+kqJJ18//uv9tIrlDM5EAZBpEHWtTukbKOg+JVOs0eiqtUoM/fs3NkJVC2Ke+a5Ll2UTtgdJuSggoSkkwv1feZB1ZJRcenNitv7rowxsTuUBfBIQZIn/rulNNrFL79QreRyhKpF9siLr70l3w5UKtrvSDLKt2WQIkT7pGgGVUtGBASJIZJVtYoVwgP0K00rW2STEEmEuhX86g/3Kt67dCWmWsllrG9sBlF/f/WtUX6KoDKIHCQ5JhnlcnlyGKqWjIg6vN1iU6drfOy0qlUaQLRhd8+uPpvtdNj5Na5KrS2zQx++rsy2cu0GW7l6I7jX+uK9bPmOewJ/NL8yo2Gk2L+Rs7UH7Pifv9npyvEuhmGDlDTqJFUu9kNyUJUbc/uCj071lFfOr5MvLQ1JOZXzZ/SXt1X5mxQHgvDRLFp6JE2Yjd37lLeE9KCbJEGKdEQ82cFgHyMCgoyxKN1HUkR2pF4JVzQ5qJ4kWwRSJByF8Z/3iVFx7FqV9CCYiSAffDTeA6G41Rs9duN6aKDfdKjHlAfWKWFOTqhvZCNFnZAirtsikCDRWVG2f3n7bnmnMx6SzU8ultIiSJFkmMejkZym0Xfy2PfICpC/HJceWcuZNp+QInI5QorI8S6FnSZIXvseeU6Yzo7xytLmJx/nWfTEspKkyMRMDtx0miDtFnuk0jFWqFjUnipIolrNora4bqw7TRBulno0CapytqhYov8qkriuZjlLEBvVKzFR5+c7wst6n0LNGoFRgcfZZd5vz109mYY3PQ5Lz4nL7iV2qxxlHk5Qr+SCaCVr/t775ehM4Yd3pb9x5auMHgOO9/nwzMbJPyy9xlx867uTBAlfI5o+WYK/DPDDt4tEZ+RLrekJMkm9itog0Xqn9T+kQZBvsTXVn3p6vO7FaeuvY35nVay6DFaZK1mESXs26TezlSpx64KpSTvdJEjVq1c0QikqVlSKlEmS4C0qJjOo4WndJEjFq1c0pyapWJbOOc/SdhXaLFcJUiioeRRe1UoWtT1Jiqwtvebl0bc6leEcQbiBXv0gp6hX8gQq60yWXC/Cbj5yWzlBdNSrqA1S9kRt86ce4UIEnJMgdRz4Mo10wid5JYt5dcRvmjaDINOglzWvpooVlSJlk0TdtVa1Z9fUjSo01j2CWLDEq6NiFTrqKFwbAfcIog1N9QmrWslKWsWqHpHyWwCClI25pnolNwsrWTIi5YRBkHJwHtViol5FbZBRAfCUioCLBPFKRXjKygRJ7DDSWa2wmxL6ILuLBMkDt+xlZFSxqEJLSJK978gJBIAAEAACQAAIAAEgAASAABAAAkAACAABIAAEgAAQAAJAAAgAASAABIAAEAACQAAIAAEgAASAABAAAkAACAABIAAEgAAQAAJAAAgAASAABIAAEAACQAAIAAEgAASAABAAAkAACAABIAAEgAAQAAJAAAgAgWQE/g+Iauos/2wuVAAAAABJRU5ErkJggg==;" vertex="1" parent="1">
          <mxGeometry x="349" y="174.5" width="81" height="81" as="geometry" />
        </mxCell>
        <mxCell id="dw4zFon4HWWVXQRwo27t-3" value="&lt;font style=&quot;font-size: 16px;&quot;&gt;专家教师（闭源模型）&lt;/font&gt;" style="text;html=1;align=center;verticalAlign=middle;whiteSpace=wrap;rounded=0;" vertex="1" parent="1">
          <mxGeometry x="135" y="200" width="93" height="30" as="geometry" />
        </mxCell>
        <mxCell id="dw4zFon4HWWVXQRwo27t-4" value="&lt;font style=&quot;font-size: 16px;&quot;&gt;专家学生（开源模型）&lt;/font&gt;" style="text;html=1;align=center;verticalAlign=middle;whiteSpace=wrap;rounded=0;" vertex="1" parent="1">
          <mxGeometry x="439" y="200" width="96" height="30" as="geometry" />
        </mxCell>
        <mxCell id="dw4zFon4HWWVXQRwo27t-8" value="" style="shape=image;verticalLabelPosition=bottom;labelBackgroundColor=default;verticalAlign=top;aspect=fixed;imageAspect=0;image=data:image/png,iVBORw0KGgoAAAANSUhEUgAAAMgAAADICAYAAACtWK6eAAAAAXNSR0IArs4c6QAAAERlWElmTU0AKgAAAAgAAYdpAAQAAAABAAAAGgAAAAAAA6ABAAMAAAABAAEAAKACAAQAAAABAAAAyKADAAQAAAABAAAAyAAAAACbWz2VAAAPWElEQVR4Ae2dS5LcNhKGi20fpGc9bmvR47WrTyFHyAut5LlFt25haaNwhBVhncKlvbXRaPaeizSHWWgIIJtVjQRAPDL/WhQfBYDID/iZAAiwdjt8QAAEQAAEQAAEQAAEQAAEQAAEQAAEQAAEQAAEQAAEQAAEQAAEQAAEQAAEQAAEQAAEQAAEQAAEQAAEQAAEQAAEQAAEQAAEQAAEeiIw9JTZXvP608//3ru833/dH8fhR3d+/HrenBsO9rdhGD/afbO9OP72x++/Hrfz33CUkwAEkpPmQ1okiHEcb83hsuLnvuBwsAL64/e3d7lT154eBJJYA6x3KCeIpzIMwTxFiPM7BMKh5YV1XmJrD+FdNGJ3GHavKRq8SwS8KQoEwuTWizCWZkEoSyJhxxBIGKddr8JYM4/EAo+yRubxOQjkMZPZmZ9+fnU3jruHDvfsp+4PIJSnixACOcFIksc4YeLxNERyjg76IKt0jDju/1z9UehJCGW9YL9ZP633rGlSje8UEthfPbsevnz+dFBo+0mT0cR6QKOlSXWyJjz8AE8yJwSBTDzqNKncVJJ5kZw6Kvu8ZRgubjCVZbf79lRxaDm/rTiMCMxUkDzzpyi/pmzMnK6tRtjG8dgHU38DVQ/g+Ytfps54zrszTfUYXlMlLnkHpr4TXTOvYIbDh/dvbihdrR/VAsn3jKOOKE5V2nx2TcOcyh8qqhVInkpkhFHSU5wSxdr5XF5Fs0hUCiSHOHrqxOaxV+f0FHUCSa8s/bbLU23v6aaw5lFjzl3EROo5TkonlpoaPXdaaYIi2RBbfm7NS2wK/cVTJRC6g8YWkbl79r9iz4jk4iaOw7h3w8xxKfQWS5VAYr2HtKYFDSqQTTGVVZsXUSOQWO8hTRxWFPEi0eVF1AgkxnuY4U25bw4xIuH3STR5ERUCifEeWsb+zcpC/rwwLX0RFQKJ8R6alqSakTmeSLR4EfECifUetq2uZWvnj4Xbq6MvIl4g4QVuQw4HTd7DWm2my8CLWB52K14g3OaVfUuhBaRpy/ci8umIFkhMR1Kj97DVnO9Fci4TsLloaytaILude1F0CPaUaRgh6fcQhutBY25CPXCweRQuEGtm2Faz93CEzMpHd3x+T/polmiB8PofvA7q+WrT76/8Zla/tobkXKxAuK6f27QIgasjjOzhXrEC4fY/dFTmMCsxmuU4iRXI/N+bnMGn9tD/cGRMM8sdP73HGwx5Or12QogVSDuI5eeEezPqiQgEciwtdNAfV1owISaCBRL+EAsd9MfywBlDQLBAUMQpBHg3jfCbUUqeasSFQGpQ7+KavAeGXZgUkUmRAuE+A5lamocIdoiigIBIgSgot+ZM5N+UmjNhNUMQyCoWnAQBQ0CoQOQ+uELFLUtAqEDQpyhbjeReTahA5BYYLCtLAAIpyxtX64wABNJZgSG7ZQlAIGV5d3Q1DHRQYUEgHVVZZLU8AQjkyBx3y/JVr48rQiB9lBNyWYmASIHwV8RVoi/oslKZixQIt95JXhHHZYHwcwIQyJwHjh4I4KZhQAgWCJaMQu3pBAQLhANH7oo4DoV5WA4TuTcjCGReK3AEAjMCYgXCW1O920ld8DMr7cADLgsu68BsNBFMrECwjLaJ+tV9JgQLpPuyqWgAZhZY+BDIAwnpr/G3Bb7NVu4CNbECkfpkd5sKPk+V+wxEMmuxAjFFzhl+5AxrziuUvCOwsGUqXCDWzLAtd/QmLFXpoTg3of5YiBYI/ueCXyG5/ysveYiX6IkWCLd6oKPOJSY/vGiBSO48blU1+R30t3db5aWFdEULxADmtJFl/99eWIVDB93npEAgvrnYP0eA3//YvT6XnoTfxAuE21FHP0RCtc5ng3iB8FHpbWbx/ld+t9Pwx6fiBWI66px+CF9SEmJwm1cSbA6xQbxACAKaWSFVgRdmGOT3P4iICoHwip5C62tmcZtXfKZ9xlAhkLhmlp4p3zHNKw39D5K0CoGQofxm1u6W4mn4cL2HluYVlb0agcRU9Jg7a8x1asaJs1Hu+o9lWagRSEwzi3tnXcLt4Zg7tYRs0jSFR41AqGC5zSyKE3eHpZjtf4xtvKklmppXVIKqBBJz59PgRThS1tI5t0xUCYSMjrkDPn/xy58WmJQteQ+u+GPY9c5r6N2AmPw/f/Fq5MYbhoubGA/EvU6J8LRychzv2aL/8P6tuvqizoNQBYy5E8ZUqBKVPeYaMRMyY5jF5K21OOruCLYAYrzIJK3Dh/dvbmwaPW5jmlZkp0bvQXar9CBkOFX244b1RVNQXt2xojQUOFYcWr0HFZ1aD0LGx3kR00TrbTQntt9BnLR6D7JdsQehin4R1Vyi0Z+ePEmKODR7DxLIN/Sl9fPl819/f/f9v/aT/ZcRDPZXz66HL58/HSLiFouSKo7ePGVusKqbWBZmbFOL4tMdttVKlCIOsk1z04rsp4/qJpZBEN/UovitNrdSxaG9aWXrhuomloWQ2NSiZJpqbpnRqvGdtY+7bdkrcm1JDY8mlkfQTCnhTd7zoh93a1Yu4zXGW1oRucxX+HH/z3rCbX06JDyIx+i///n0W0Kn3aZUxZt4XuPSZiRmO/U7/hETT2oc9EEWJRszJX6RRPF+SewDwGW+0e9YElE+zPsYx25H/ZGrZz98nJopL9d+Z5wr4klyiqPV0TgG8+xB4UFWkNKs3diHiH5yMav1/Pil9mv2m0rZGHsd9EFOkDOe5JoGMfYngoScviRvRGmFBI4J88+ra/a0df86EIdP4/E+PMhjJl/PUJPDeJKYiY1fk9lsh0atUhI3a1xk/31BCh+KC4E8QZCaWzTFPb4D2+L7tYZjE1LKArAnijDp52+TYiuKTN5k6hAfR6j6NhvPOTjlBw/CoGWaXP2+k5a8YO8LvhjFlSUoBMLG2PNL03rOO7ugskSAQLJgRCJSCUAgUksWdmUhgE76CYxuCPV+ekXO8KMJNk779yditH+a3swyrX2ZMkqjWOM0W4A+FweMZhkSa98QyETFisG9DmcphHGNXcfnyL7d3hhwf2tEQ0dOOJh2YuioFIgRhPUMSzEYMH18537G4oQziWaaNm9WTBoWOj2NCoHMPYQvCGmeIb+s3etJjaexD0y1eBixAiFR2CbT1Pbe5686OlO0gpl7GLneRZRAnCh8L1G7Il8ctssBpX1/bAptd43zKRvByPUuNFu1648vihYN2fLNIMZ2/kuoS3AyTbH+PUu3AmldGFQJqZJs3VbPsY5+S8H03mfpqolFopiaFDREedvH84gtm1emWtMS4amvNXFp8+P3WUrcMHJT6MKD9OAtlgVj1lr8elie3+K45abWmr09CaV5gbTehHAVwCyqojt6rSfTtD6d8mPv2i5vbe71IJRmBZLrZQR5q4YVAU3TcM2nWoIIsc02SymsP2UmJG6pMC0LpTmBtNOcstMu+h+JOVXRrXiMcOr3Y1oUSlMCqec1rGcYXlNlatkjnKrsuc67ZhpN0CwvmtZE0oRAynsNJwjNYggRVS0vU3KQ4xyH6gIp5zWoyQQPca4yhPzmPMxu8yf4LXiTqgLZXhxGFPASIVWfH6aEWGqLpJpAthMHRMGv6ukxTHlu02+pKZIqAtlGHBBGejVPT8H1WfI2wWqJpLhAcoujFrj0qiQ/hfxlfXFTurlcVCBmtCrP7FMIox+B5RRK6dGtoi+vnl60/G4q1suUoiVhTFPIb1r/d9kUG6XFpbKa/pzoNf0r8GTbPtG+S/qjo8Q0gqMX8yDpdxG8MjO4VBsPmFoXSnqRYu/FSplAZ7zGm5vGyx3ZCySQ+gpXu5Q68HJJwYp4kPg7Bkamkkq3g8ixs7VLeZFiHoRfVqZJVXrUgp9PxEghYF6mbab+cNIp5UWKCITfvEJ/g1NZeg8bK5ISdhcRCNcQvKKfS6z/8HaeXLglZWYaby4Q82Q13GzqkIeHRkgpBExTmt/U2tr+zQWytQFIXw4B90LtMJu4N9+wVOehIJA5DxyBwIwABDLDgYOeCJQY4dxcIFwj3IsFeioq5DUHgRbLfnOB8MGVGZ3g5wsxtifQXtkXEghvdKJE52v7wsYVOARotgUnfKnRziIC4Y5OlHpKyikQhN2WAP9h8rb5sakXEYj/kjV74fPbcc+9o5xPD7+2TCCurN2L+7a0rchkRTJg+sOVkWtIqQlp3HwhfD4CsRNZt/xbCd+6Qh6ELsnrh1AM+ldW9EeIhMwPlW1M06pU/4OoFxMIf66NqRQQiWRxxC2/3vo/V3zixQSSMtfGiOTVnZ9x7PdLwHiOOHGU9B5EuOia9KtnP/xvaji9jCzaPa1pxlr0SHqNRDN9jpHeTRD1ofcRREWMjFRUIF8+//V34sL9/XffX99BKJGlXTEaeY2Hl3a8jM0GeY/SN8hio1g+lNhlln4atE/ASrZHl9fH8dMETHNqnN7jm/qUvM4iumJ9EB9lbIfdT4P2aQSEho/jxtGXqeE4JwESBt0Iqf+YLg66GZoXj+fMY0haVTwIZSylo3bKMNuBg1c5RWjb8/m8xTyfNZ+HVRMIIYh9SDTHt34EsaxzyX12K1HYfNZuRlcVCEHYUiQWMj2ktPPB4F0clZg9JwiKndqvOJ+D2uKg3FUXCGWijEjoSu5jPQzNE+OuWXGpyN0jIRjr6H/p6W8N6LOtIMw1zHfNZtUsH/5BzX13ZypXCI/tdZ7G/CZfPLWFsF4G9f5Ke5mfJjyIn6ka3sS//vl9M5/MNtdcWDeztLY3chXe5u5+b/dqeAJ77ZBtC02qZT6bEwhlsA1vskSVcsyfqBl2tZreNiyHYaHafcVskwKxUNv2JjaX2MYTaFcY1qamBWIzCaFYElK27QvDku5CIDazEIol0eu2H2FYwl0JxGaahEL7MYttbBrYliTQnzAsnS4FYjNPW+NVtvn7Yf862OcS6FcUvqXdC8Q3Bp7Fp1FjX4YofHKiBOIbZp4H2KfAUoZDfQtb2CdBjB8lz0YQK5Bl9bGCofPmgRlEs2R0/tg+JDXTzms/ED2f13y/qhHIGrLHoqFQ2oVjhWA8AxHRIgaydflRLZAlDP/YFw+db32ahp/38/vuqb5tHlF4zSI4xwsCOUfnid+MiGwgN+fJnqGtE5Z/dm1/6blcRV4L7Z87NzeMwqHy+7SwDwIgAAIgAAIgAAIgAAIgAAIgAAIgAAIgAAIgAAIgAAIgAAIgAAIgAAIgAAIgAAIgAAIgAAIgAAIgAAIgAAIgAAIgAAIgAAIgIJnA/wGpCwtRgxuI8wAAAABJRU5ErkJggg==;" vertex="1" parent="1">
          <mxGeometry x="-172" y="186.5" width="57" height="57" as="geometry" />
        </mxCell>
        <mxCell id="dw4zFon4HWWVXQRwo27t-9" value="&lt;span style=&quot;font-size: 16px;&quot;&gt;用户&lt;/span&gt;" style="text;html=1;align=center;verticalAlign=middle;whiteSpace=wrap;rounded=0;" vertex="1" parent="1">
          <mxGeometry x="-122" y="200" width="64" height="30" as="geometry" />
        </mxCell>
        <mxCell id="dw4zFon4HWWVXQRwo27t-11" value="&lt;span style=&quot;font-size: 16px;&quot;&gt;外部工具集成&lt;/span&gt;" style="text;html=1;align=center;verticalAlign=middle;whiteSpace=wrap;rounded=0;" vertex="1" parent="1">
          <mxGeometry x="88" y="96" width="103" height="30" as="geometry" />
        </mxCell>
        <mxCell id="dw4zFon4HWWVXQRwo27t-12" value="&lt;span style=&quot;font-size: 16px;&quot;&gt;任务规划&lt;/span&gt;" style="text;html=1;align=center;verticalAlign=middle;whiteSpace=wrap;rounded=0;" vertex="1" parent="1">
          <mxGeometry x="225" y="96.5" width="77" height="30" as="geometry" />
        </mxCell>
        <mxCell id="dw4zFon4HWWVXQRwo27t-13" value="&lt;span style=&quot;font-size: 16px;&quot;&gt;意图理解&lt;/span&gt;" style="text;html=1;align=center;verticalAlign=middle;whiteSpace=wrap;rounded=0;" vertex="1" parent="1">
          <mxGeometry x="-22" y="96" width="77" height="30" as="geometry" />
        </mxCell>
        <mxCell id="dw4zFon4HWWVXQRwo27t-14" value="&lt;span style=&quot;font-size: 16px;&quot;&gt;引导、监督&lt;/span&gt;" style="text;html=1;align=center;verticalAlign=middle;whiteSpace=wrap;rounded=0;" vertex="1" parent="1">
          <mxGeometry x="255" y="185" width="84" height="30" as="geometry" />
        </mxCell>
        <mxCell id="dw4zFon4HWWVXQRwo27t-15" value="&lt;span style=&quot;font-size: 16px;&quot;&gt;精炼知识&lt;/span&gt;" style="text;html=1;align=center;verticalAlign=middle;whiteSpace=wrap;rounded=0;" vertex="1" parent="1">
          <mxGeometry x="255" y="225.5" width="81" height="30" as="geometry" />
        </mxCell>
        <mxCell id="dw4zFon4HWWVXQRwo27t-18" value="&lt;font style=&quot;font-size: 16px;&quot;&gt;提问&lt;/font&gt;" style="text;html=1;align=center;verticalAlign=middle;whiteSpace=wrap;rounded=0;" vertex="1" parent="1">
          <mxGeometry x="-41" y="185" width="60" height="30" as="geometry" />
        </mxCell>
        <mxCell id="dw4zFon4HWWVXQRwo27t-29" value="&lt;span style=&quot;font-size: 16px;&quot;&gt;最终回复&lt;/span&gt;" style="text;html=1;align=center;verticalAlign=middle;whiteSpace=wrap;rounded=0;" vertex="1" parent="1">
          <mxGeometry x="207" y="266" width="78" height="30" as="geometry" />
        </mxCell>
      </root>
    </mxGraphModel>
  </diagram>
</mxfile>
